<svg width="293" height="108" viewBox="0 0 293 108" fill="none" xmlns="http://www.w3.org/2000/svg">
<path d="M0 49.4957V66.3137C81.01 30.0137 107.9 145.814 272.332 75.3767C278.194 72.8743 283.193 68.7061 286.709 63.389C290.224 58.0719 292.102 51.8399 292.108 45.4657C112.708 132.811 84.982 11.5807 3.83798 43.8417C2.70606 44.2921 1.73526 45.0716 1.05106 46.0796C0.366854 47.0875 0.000728865 48.2775 0 49.4957Z" fill="#458985"/>
<path d="M291.34 7.23176C237.506 -16.8902 207.572 26.1528 145.29 37.0788C180.36 43.2308 225.694 39.1948 291.34 7.23176Z" fill="#67C973"/>
<path d="M0 36.8728C83.617 -0.601261 109.578 123.982 288.636 38.5468C289.674 38.0522 290.551 37.2739 291.166 36.3019C291.78 35.3298 292.107 34.2037 292.108 33.0538V16.0218C129.479 95.1998 91.492 2.97974 25.362 9.07874C18.4306 9.71602 11.9872 12.9196 7.29535 18.0614C2.60351 23.2031 0.00168246 29.9121 0 36.8728Z" fill="#458985"/>
<path d="M0.768982 75.7007C54.592 51.5787 84.531 94.6217 146.812 105.55C111.734 111.699 66.409 107.664 0.768982 75.7007Z" fill="#EF980C"/>
</svg>
